<?xml version="1.0" encoding="UTF-8"?>
<svg width="512px" height="541px" viewBox="0 0 512 541" xmlns="http://www.w3.org/2000/svg" xmlns:xlink="http://www.w3.org/1999/xlink" version="1.1">
 <!-- Generated by Pixelmator Pro 2.2 -->
 <g id="group">
  <path id="Path" d="M511.151 198.194 C510.082 195.767 508.091 193.864 505.62 192.904 L464.924 177.102 488.322 116.846 C489.282 114.374 489.22 111.621 488.151 109.194 487.082 106.767 485.091 104.864 482.62 103.904 L420 79.588 420 50 C420 43.25 418.68 36.7 416.069 30.54 413.549 24.58 409.939 19.24 405.349 14.65 400.759 10.06 395.419 6.45 389.459 3.93 383.3 1.32 376.75 0 370 0 L10 0 C7.37 0 4.79 1.07 2.93 2.93 1.069 4.79 0 7.37 0 10 L0 502 C0 504.63 1.069 507.21 2.93 509.07 4.791 510.93 7.37 512 10 512 L281 512 C290.747 511.95 293.057 506.212 293 502 292.941 497.628 291.094 492.024 281 492 L60 492 60 20 370 20 C386.51 20.03 399.97 33.49 400 50 L400 380.14 C400 385.66 404.49 390.14 410 390.14 415.51 390.14 420 385.66 420 380.14 L420 345.369 442.955 354.283 C444.145 354.745 445.369 354.964 446.573 354.964 450.578 354.964 454.36 352.54 455.897 348.581 L511.322 205.846 Z M40 492 L20 492 20 20 40 20 Z M420 101.043 L466.059 118.928 446.281 169.862 420 159.657 Z M440.873 332.019 L420 323.914 420 181.112 489.059 207.928 Z" fill="#000000" fill-opacity="1" stroke="none"/>
  <path id="Rounded-Rectangle" d="M340 471 C334.477 471 330 475.477 330 481 L330 481 C330 486.523 334.477 491 340 491 L439 491 C444.523 491 449 486.523 449 481 L449 481 C449 475.477 444.523 471 439 471 Z" fill="#000000" fill-opacity="1" stroke="none"/>
  <path id="Rounded-Rectangle-copy" d="M380 531 C380 536.523 384.477 541 390 541 L390 541 C395.523 541 400 536.523 400 531 L400 432 C400 426.477 395.523 422 390 422 L390 422 C384.477 422 380 426.477 380 432 Z" fill="#000000" fill-opacity="1" stroke="none"/>
  <path id="Path-1" d="M171.5 335 L289.25 335 C294.772 335 299.25 330.523 299.25 325 L299.25 238.565 C319.817 233.818 335.25 215.287 335.25 193.375 335.25 167.804 314.446 147 288.875 147 278.063 147 267.656 150.825 259.437 157.565 251.219 150.825 240.812 147 230 147 219.188 147 208.781 150.825 200.562 157.565 192.343 150.825 181.937 147 171.124 147 145.553 147 124.749 167.804 124.749 193.375 124.749 215.647 140.531 234.302 161.499 238.746 L161.499 325 C161.5 330.523 165.978 335 171.5 335 Z M144.75 193.375 C144.75 178.832 156.582 167 171.125 167 179.533 167 187.514 171.074 192.474 177.897 194.356 180.486 197.363 182.018 200.563 182.018 203.763 182.018 206.77 180.486 208.652 177.897 213.611 171.074 221.592 167 230 167 238.408 167 246.389 171.074 251.349 177.897 253.231 180.486 256.238 182.018 259.438 182.018 262.638 182.018 265.645 180.486 267.527 177.897 272.487 171.074 280.467 167 288.876 167 303.419 167 315.251 178.832 315.251 193.375 315.251 207.767 303.542 219.595 289.149 219.741 289.1 219.741 272.751 219.75 272.751 219.75 267.229 219.75 262.751 224.227 262.751 229.75 262.751 235.273 267.229 239.75 272.751 239.75 L279.251 239.75 279.251 315 181.5 315 181.5 239.75 188 239.75 C193.522 239.75 198 235.273 198 229.75 198 224.227 193.522 219.75 188 219.75 188 219.75 171.197 219.744 171.023 219.75 156.526 219.695 144.75 207.884 144.75 193.375 Z" fill="#000000" fill-opacity="1" stroke="none"/>
 </g>
</svg>
