<?xml version="1.0" encoding="UTF-8"?>
<svg xmlns="http://www.w3.org/2000/svg" id="Layer_1" data-name="Layer 1" viewBox="0 0 64 64" width="512" height="512"><path d="M60,54a1,1,0,0,1-1-1c0-5.657-.924-10.078-2.825-13.516a1,1,0,1,1,1.75-.968C59.994,42.258,61,47,61,53A1,1,0,0,1,60,54Z"/><path d="M54.956,37a1,1,0,0,1-.754-.343C50.35,32.24,43.889,30,35,30a33.447,33.447,0,0,0-8.739,1.147,1,1,0,0,1-.522-1.931A35.437,35.437,0,0,1,35,28c9.493,0,16.46,2.471,20.709,7.343A1,1,0,0,1,54.956,37Z"/><path d="M61,58H3a1,1,0,0,1-.895-.553l-2-4A1,1,0,0,1,1,52H3.042c.3-3.628,2.214-7.807,5.345-11.633a1,1,0,0,1,1.548,1.266C6.845,45.409,5,49.658,5,53a1,1,0,0,1-1,1H2.618l1,2H60.382l1-2H7a1,1,0,0,1,0-2H63a1,1,0,0,1,.9,1.447l-2,4A1,1,0,0,1,61,58Z"/><path d="M34.433,46.234a1,1,0,0,1-.916-1.4,8,8,0,0,0-9.089-11.008,5.881,5.881,0,0,1-4.074-.475l-.174-.085a5,5,0,0,0-5.68,1.006,1,1,0,0,1-1.137.2L8.525,32.189a1,1,0,0,1-.477-1.331A2,2,0,0,0,4.657,28.78a1.976,1.976,0,0,0-.323,1.8,1,1,0,0,1-.571,1.211,1.97,1.97,0,0,0-1.182,1.393,2,2,0,0,0,3.761,1.294A1,1,0,0,1,7.673,34L12.51,36.28a1,1,0,0,1,.569,1,5.006,5.006,0,0,0,2.836,5.024,1,1,0,1,1-.853,1.809A7.013,7.013,0,0,1,11.053,37.8L7.609,36.18a4,4,0,1,1-5.348-5.84,3.988,3.988,0,0,1,5.03-4.2,4,4,0,0,1,2.878,4.609l3.444,1.625a7.007,7.007,0,0,1,7.421-.922c.083.039.164.079.244.121a3.907,3.907,0,0,0,2.706.3,10.038,10.038,0,0,1,11.365,13.76A1,1,0,0,1,34.433,46.234Z"/><path d="M14.358,29.377a4,4,0,0,1-3.695-5.535A3.947,3.947,0,0,1,11.934,22.2a4,4,0,1,1,7.919.038L22.3,23.257c2.678-2.751,6.585-1.6,9.361-.446A11.138,11.138,0,0,1,35.375,25.3,1,1,0,0,1,33.938,26.7,9.116,9.116,0,0,0,30.9,24.659c-3.834-1.592-6.083-1.47-7.517.406a1,1,0,0,1-1.178.316l-3.923-1.627a1,1,0,0,1-.54-1.307,2,2,0,1,0-3.694-1.533,1.969,1.969,0,0,0-.028,1.429A1,1,0,0,1,13.5,23.58a1.963,1.963,0,0,0-.991,1.028,2,2,0,0,0,3.7,1.533,1,1,0,0,1,1.306-.54l3.923,1.628a1,1,0,1,1-.767,1.847l-3.115-1.293a4.02,4.02,0,0,1-3.195,1.594Z"/><path d="M44,18a1,1,0,0,1-.665-1.748c.249-.231,1.451-1.537-.135-3.652-2.217-2.955-.881-5.444.135-6.348a1,1,0,0,1,1.337,1.489c-.26.243-1.456,1.548.128,3.659,2.217,2.955.881,5.444-.135,6.348A1,1,0,0,1,44,18Z"/><path d="M51,24a1,1,0,0,1-.665-1.748c.249-.231,1.451-1.537-.135-3.652-2.217-2.955-.881-5.444.135-6.348a1,1,0,0,1,1.337,1.489c-.26.243-1.456,1.548.128,3.659,2.217,2.955.881,5.444-.135,6.348A1,1,0,0,1,51,24Z"/><path d="M38,22a1,1,0,0,1-.665-1.748c.249-.231,1.451-1.537-.135-3.652-2.217-2.955-.881-5.444.135-6.348a1,1,0,0,1,1.337,1.489c-.26.243-1.456,1.548.128,3.659,2.217,2.955.881,5.444-.135,6.348A1,1,0,0,1,38,22Z"/></svg>
