<?xml version="1.0"?>
<svg xmlns="http://www.w3.org/2000/svg" viewBox="0 0 64 64" width="512" height="512"><g id="_7-rice_bowl" data-name="7-rice bowl"><path d="M8,33a1,1,0,0,0,1-1,2,2,0,0,1,4,0,1,1,0,0,0,2,0,4,4,0,0,0-8,0A1,1,0,0,0,8,33Z"/><path d="M49,32a1,1,0,0,0,1-1,2,2,0,0,1,4,0,1,1,0,0,0,2,0,4,4,0,0,0-8,0A1,1,0,0,0,49,32Z"/><path d="M33,20a1,1,0,0,0,1-1,2,2,0,0,1,4,0,1,1,0,0,0,2,0,4,4,0,0,0-8,0A1,1,0,0,0,33,20Z"/><path d="M41,32a4.00458,4.00458,0,0,0-4,4,1,1,0,0,0,2,0,2,2,0,0,1,4,0,1,1,0,0,0,2,0A4.00458,4.00458,0,0,0,41,32Z"/><path d="M39,24a4.00458,4.00458,0,0,0-4,4,1,1,0,0,0,2,0,2.01611,2.01611,0,0,1,2.74365-1.852.99986.99986,0,0,0,1.3374-.667A1.99292,1.99292,0,0,1,45,26a1,1,0,0,0,2,0,3.99178,3.99178,0,0,0-7.47168-1.96387A3.90508,3.90508,0,0,0,39,24Z"/><path d="M17,24a1,1,0,0,0,1-1,1.99292,1.99292,0,0,1,3.91895-.519.99986.99986,0,0,0,1.3374.667A2.01564,2.01564,0,0,1,26,25a1,1,0,0,0,2,0,4.00458,4.00458,0,0,0-4-4,3.90508,3.90508,0,0,0-.52832.03613A3.99178,3.99178,0,0,0,16,23,1,1,0,0,0,17,24Z"/><path d="M22.52832,31.03613A3.90508,3.90508,0,0,0,22,31a4.00458,4.00458,0,0,0-4,4,1,1,0,0,0,2,0,2.016,2.016,0,0,1,2.74365-1.852.99986.99986,0,0,0,1.3374-.667A1.99292,1.99292,0,0,1,28,33a1,1,0,0,0,2,0,3.99178,3.99178,0,0,0-7.47168-1.96387Z"/><rect x="26" y="15" width="2" height="2"/><rect x="51" y="33" width="2" height="2"/><rect x="45" y="19" width="2" height="2"/><rect x="52" y="23" width="2" height="2"/><rect x="43" y="29" width="2" height="2"/><rect x="11" y="24" width="2" height="2"/><rect x="32" y="23" width="2" height="2"/><rect x="33" y="32" width="2" height="2"/><rect x="25" y="35" width="2" height="2"/><rect x="19" y="26" width="2" height="2"/><path d="M64,31a7.04543,7.04543,0,0,0-5.00684-6.70264Q58.99976,24.14795,59,24a6.999,6.999,0,0,0-7.66113-6.96729,6.955,6.955,0,0,0-7-4,6.98944,6.98944,0,0,0-10.248-2.83349,6.99244,6.99244,0,0,0-10.90234.9043A6.91226,6.91226,0,0,0,22,11a7.00221,7.00221,0,0,0-6.38428,4.14014,7.03643,7.03643,0,0,0-4.999,3.99951,7.00377,7.00377,0,0,0-5.3833,5.09228A6.95091,6.95091,0,0,0,0,31c0,.24323.26788,20.4599,19,26.98627V61a.9989.9989,0,0,0,.69531.95215A39.39338,39.39338,0,0,0,32,64a39.39338,39.39338,0,0,0,12.30469-2.04785A.9989.9989,0,0,0,45,61V57.98627C63.73212,51.4599,64,31.24323,64,31ZM2.17627,33.46387C5.67676,36.20361,14.32812,41,32,41s26.32324-4.79639,29.82373-7.53613a32.05479,32.05479,0,0,1-.97406,4.85138C56.99622,42.252,45.1405,45,32,45S7.00378,42.252,3.15033,38.31525A32.05479,32.05479,0,0,1,2.17627,33.46387ZM6.231,26.06641a.99989.99989,0,0,0,.83545-.83545,4.995,4.995,0,0,1,4.37793-4.19776.9998.9998,0,0,0,.835-.667,5.01473,5.01473,0,0,1,4.165-3.333.9998.9998,0,0,0,.835-.667,5.03228,5.03228,0,0,1,6.1167-3.16406,1.00172,1.00172,0,0,0,1.167-.5,4.99438,4.99438,0,0,1,8.55127-.53955.9995.9995,0,0,0,1.501.1665,4.98933,4.98933,0,0,1,8.1377,2.12451.99754.99754,0,0,0,1.166.667,4.96913,4.96913,0,0,1,5.834,3.333.99845.99845,0,0,0,1.166.667,4.97984,4.97984,0,0,1,5.9956,5.77539.99992.99992,0,0,0,.835,1.16748,5.01432,5.01432,0,0,1,4.21863,4.5921C60.58215,32.10815,52.89941,39,32,39,11.20959,39,3.42786,32.09253,2.03125,30.65051A4.95113,4.95113,0,0,1,6.231,26.06641ZM43,60.26465A36.92436,36.92436,0,0,1,32,62a36.92436,36.92436,0,0,1-11-1.73535V58.60529A41.00615,41.00615,0,0,0,32,60a41.00615,41.00615,0,0,0,11-1.39471ZM32,58C14.74359,58,7.41846,49.20575,4.30438,41.64789,9.86115,44.91376,20.31976,47,32,47s22.13885-2.08624,27.69562-5.35211C56.58154,49.20575,49.25641,58,32,58Z"/></g></svg>
