<svg height="512pt" viewBox="0 -5 512.03658 512" width="512pt" xmlns="http://www.w3.org/2000/svg"><path d="m164.742188 201.367188c-1.871094-18.699219-2.789063-37.484376-2.75-56.277344.015624-6-3.128907-11.5625-8.273438-14.644532-5.148438-3.082031-11.535156-3.230468-16.816406-.386718h-.007813l-2.074219 1.121094c-31.832031 17.152343-106.386718 57.324218-132.09375 97.550781-4.628906 7.160156-3.246093 16.640625 3.234376 22.179687 8.71875 7.527344 22.527343 19.15625 37.902343 31.109375-.742187 3.628907-1.136719 7.324219-1.167969 11.03125.164063 12.785157 4.160157 25.226563 11.46875 35.71875l31.820313 95.480469c1 2.476562 22.527344 52.789062 111.308594 52.785156 14.667969-.097656 29.308593-1.316406 43.792969-3.648437.941406.589843 1.9375 1.082031 2.976562 1.476562 23.574219 8.824219 78.355469 27.03125 129.066406 27.03125 8.398438.03125 16.792969-.53125 25.113282-1.683593 5.679687-.839844 10.550781-4.484376 12.964843-9.691407 2.410157-5.207031 2.039063-11.277343-.988281-16.152343-1.0625-1.71875-2.304688-3.75-3.613281-5.914063 33.34375-8.589844 65.601562-20.933594 96.164062-36.789063 4.113281-2.136718 7.1875-5.839843 8.53125-10.277343 1.335938-4.34375.835938-9.050781-1.382812-13.019531-23.183594-44.203126-66.511719-74.273438-116.03125-80.527344-4.480469-.523438-8.980469.78125-12.484375 3.621094-3.566406 2.847656-5.835938 7.015624-6.292969 11.558593-1.453125 12.859375-6.125 25.148438-13.582031 35.726563-3.28125-8.425782-6.289063-16.9375-8.816406-25.382813-2.046876-7.21875-8.710938-12.144531-16.214844-11.980469 1.195312-4.851562 2.316406-9.769531 3.359375-14.808593 6.453125-10 9.933593-21.625 10.039062-33.523438 0-52.636719-67.46875-93.867187-153.601562-93.867187-10.550781.066406-21.089844.792968-31.550781 2.183594zm12.761718 68.089843c-1.042968-3.308593-2.765625-9.273437-4.679687-17.609375 7.789062-.933594 15.625-1.425781 23.46875-1.464844 67.558593 0 102.402343 29.910157 102.402343 42.667969 0 12.757813-34.84375 42.667969-102.402343 42.667969-23.109375.398438-46.0625-3.828125-67.515625-12.429688 17.726562-9.789062 33.414062-22.890624 46.199218-38.597656 3.246094-4.375 4.183594-10.046875 2.527344-15.234375zm-34.59375-123.257812 2.015625-1.085938c-1.0625 43.691407 4.464844 87.296875 16.402344 129.339844-11.917969 14.183594-26.308594 26.082031-42.476563 35.117187-22.609374-7.558593-67.382812-41.933593-101.742187-71.65625 23.316406-36.492187 95.132813-75.1875 125.800781-91.714843zm-40.917968 272.15625-21.003907-63.0625c28.542969 19.757812 70.164063 31.625 115.304688 31.625 47.65625 0 91.078125-12.984375 119.5625-34.527344-.058594.199219-.109375.402344-.171875.597656-23.308594 19.074219-61.902344 55.277344-81.277344 99.296875-.679688 1.605469-1.105469 3.308594-1.257812 5.046875-106.988282 14.753907-130.390626-37.253906-131.15625-38.976562zm289.953124-73.558594c43.988282 5.625 82.449219 32.402344 102.996094 71.703125-30.847656 16.132812-63.582031 28.363281-97.453125 36.414062-8.628906-15.15625-19.046875-34.785156-28.378906-55.921874 12.722656-14.683594 20.6875-32.886719 22.835937-52.195313zm-40.667968 53.929687c.050781.128907.097656.25.160156.371094 10.0625 23.097656 21.46875 45.582032 34.160156 67.34375l.109375.191406c3.910157 6.738282 7.359375 12.445313 9.996094 16.699219-53.898437 7.671875-124.6875-16.617187-145.460937-24.09375-.050782-.0625-.117188-.113281-.167969-.175781 18.367187-41.640625 55.902343-76.273438 77.75-94.070312.351562-.242188.683593-.511719.996093-.804688 2.808594-2.269531 5.375-4.285156 7.539063-5.945312 4.207031 13.765624 9.1875 27.285156 14.917969 40.488281zm-18.449219-105.675781c-.105469 9.226563-2.953125 18.21875-8.183594 25.820313-19.785156 30.492187-71.367187 50.980468-128.351562 50.980468-55.699219 0-106.859375-19.882812-127.347657-49.554687-5.609374-7.621094-8.78125-16.761719-9.097656-26.21875 7.507813 5.492187 15.070313 10.742187 22.398438 15.433594 13.664062 21.160156 54.40625 43.273437 114.046875 43.273437 70.402343 0 119.46875-31.480468 119.46875-59.734375 0-28.253906-49.066407-59.734375-119.46875-59.734375-8.984375.042969-17.960938.632813-26.878907 1.765625-.910156-5.09375-1.804687-10.699219-2.644531-16.78125 9.789063-1.304687 19.648438-1.988281 29.523438-2.050781 74.007812 0 136.535156 35.171875 136.535156 76.800781zm0 0"/><path d="m290.160156 446.652344c0 4.710937-3.820312 8.53125-8.53125 8.53125-4.714844 0-8.535156-3.820313-8.535156-8.53125 0-4.714844 3.820312-8.535156 8.535156-8.535156 4.710938 0 8.53125 3.820312 8.53125 8.535156zm0 0"/><path d="m324.292969 438.117188c0 4.714843-3.820313 8.535156-8.53125 8.535156-4.714844 0-8.535157-3.820313-8.535157-8.535156 0-4.710938 3.820313-8.53125 8.535157-8.53125 4.710937 0 8.53125 3.820312 8.53125 8.53125zm0 0"/><path d="m332.828125 403.984375c0 4.714844-3.820313 8.535156-8.535156 8.535156-4.710938 0-8.53125-3.820312-8.53125-8.535156 0-4.710937 3.820312-8.53125 8.53125-8.53125 4.714843 0 8.535156 3.820313 8.535156 8.53125zm0 0"/><path d="m460.828125 403.984375c0 4.714844-3.820313 8.535156-8.535156 8.535156-4.710938 0-8.53125-3.820312-8.53125-8.535156 0-4.710937 3.820312-8.53125 8.53125-8.53125 4.714843 0 8.535156 3.820313 8.535156 8.53125zm0 0"/><path d="m358.425781 455.183594c0 4.714844-3.820312 8.535156-8.53125 8.535156-4.714843 0-8.535156-3.820312-8.535156-8.535156 0-4.710938 3.820313-8.53125 8.535156-8.53125 4.710938 0 8.53125 3.820312 8.53125 8.53125zm0 0"/><path d="m401.09375 403.984375c0 4.714844-3.820312 8.535156-8.535156 8.535156-4.710938 0-8.53125-3.820312-8.53125-8.535156 0-4.710937 3.820312-8.53125 8.53125-8.53125 4.714844 0 8.535156 3.820313 8.535156 8.53125zm0 0"/><path d="m435.226562 421.050781c0 4.714844-3.820312 8.535157-8.53125 8.535157-4.714843 0-8.535156-3.820313-8.535156-8.535157 0-4.710937 3.820313-8.53125 8.535156-8.53125 4.710938 0 8.53125 3.820313 8.53125 8.53125zm0 0"/><path d="m435.226562 386.917969c0 4.714843-3.820312 8.535156-8.53125 8.535156-4.714843 0-8.535156-3.820313-8.535156-8.535156 0-4.710938 3.820313-8.53125 8.535156-8.53125 4.710938 0 8.53125 3.820312 8.53125 8.53125zm0 0"/><path d="m59.761719 241.851562c0 4.710938-3.820313 8.535157-8.535157 8.535157-4.710937 0-8.53125-3.824219-8.53125-8.535157 0-4.710937 3.820313-8.535156 8.53125-8.535156 4.714844 0 8.535157 3.824219 8.535157 8.535156zm0 0"/><path d="m93.894531 216.25c0 4.714844-3.820312 8.535156-8.535156 8.535156-4.710937 0-8.53125-3.820312-8.53125-8.535156 0-4.710938 3.820313-8.53125 8.53125-8.53125 4.714844 0 8.535156 3.820312 8.535156 8.53125zm0 0"/><path d="m128.027344 190.652344c0 4.710937-3.820313 8.53125-8.535156 8.53125-4.710938 0-8.53125-3.820313-8.53125-8.53125 0-4.714844 3.820312-8.535156 8.53125-8.535156 4.714843 0 8.535156 3.820312 8.535156 8.535156zm0 0"/><path d="m119.492188 233.316406c0 4.714844-3.820313 8.535156-8.53125 8.535156-4.714844 0-8.535157-3.820312-8.535157-8.535156 0-4.710937 3.820313-8.53125 8.535157-8.53125 4.710937 0 8.53125 3.820313 8.53125 8.53125zm0 0"/><path d="m102.425781 267.453125c0 4.710937-3.820312 8.53125-8.53125 8.53125-4.714843 0-8.535156-3.820313-8.535156-8.53125 0-4.714844 3.820313-8.535156 8.535156-8.535156 4.710938 0 8.53125 3.820312 8.53125 8.535156zm0 0"/><path d="m136.558594 267.453125c0 4.710937-3.820313 8.53125-8.53125 8.53125-4.714844 0-8.535156-3.820313-8.535156-8.53125 0-4.714844 3.820312-8.535156 8.535156-8.535156 4.710937 0 8.53125 3.820312 8.53125 8.535156zm0 0"/><path d="m196.292969 429.585938c-53.015625 0-69.324219-21.304688-69.765625-21.902344-2.652344-3.871094-7.9375-4.871094-11.824219-2.242188-3.886719 2.632813-4.917969 7.90625-2.308594 11.808594.800781 1.199219 20.332031 29.402344 83.898438 29.402344 4.714843 0 8.535156-3.820313 8.535156-8.535156 0-4.710938-3.820313-8.53125-8.535156-8.53125zm0 0"/><path d="m230.425781 318.652344c19.144531 0 34.132813-10.496094 34.132813-23.894532 0-13.398437-14.988282-23.894531-34.132813-23.894531-19.140625 0-34.132812 10.496094-34.132812 23.894531 0 13.398438 14.992187 23.894532 34.132812 23.894532zm0-30.722656c10.617188 0 17.066407 4.742187 17.066407 6.828124 0 2.085938-6.449219 6.828126-17.066407 6.828126-10.613281 0-17.066406-4.742188-17.066406-6.828126 0-2.085937 6.453125-6.824218 17.066406-6.824218zm0 0"/><path d="m278.511719 158.941406c8.316406 1.15625 16.707031 1.71875 25.105469 1.683594 50.710937 0 105.492187-18.203125 129.066406-27.027344 4.398437-1.648437 7.925781-5.023437 9.761718-9.34375 1.800782-4.230468 1.761719-9.023437-.109374-13.226562-22.652344-51.46875-71.660157-92.347656-91.683594-107.535156-4.472656-3.382813-10.316406-4.367188-15.648438-2.636719-5.273437 1.722656-9.371094 5.917969-10.964844 11.234375-14.277343 42.484375-33.585937 83.113281-57.515624 121.011718-3.027344 4.875-3.390626 10.949219-.976563 16.15625 2.417969 5.207032 7.289063 8.847657 12.96875 9.683594zm2.519531-16.851562c24.691406-39.144532 44.601562-81.109375 59.304688-124.996094 18.964843 14.382812 65.34375 52.992188 86.367187 100.523438-20.535156 7.679687-91.734375 32.15625-145.683594 24.5zm0 0"/><path d="m403.652344 105.382812c0 4.714844-3.820313 8.535157-8.53125 8.535157-4.714844 0-8.535156-3.820313-8.535156-8.535157 0-4.710937 3.820312-8.53125 8.535156-8.53125 4.710937 0 8.53125 3.820313 8.53125 8.53125zm0 0"/><path d="m369.519531 96.851562c0 4.710938-3.820312 8.53125-8.53125 8.53125-4.714843 0-8.535156-3.820312-8.535156-8.53125 0-4.714843 3.820313-8.535156 8.535156-8.535156 4.710938 0 8.53125 3.820313 8.53125 8.535156zm0 0"/><path d="m360.988281 62.71875c0 4.710938-3.820312 8.53125-8.535156 8.53125-4.710937 0-8.53125-3.820312-8.53125-8.53125 0-4.714844 3.820313-8.535156 8.53125-8.535156 4.714844 0 8.535156 3.820312 8.535156 8.535156zm0 0"/><path d="m335.386719 113.917969c0 4.710937-3.820313 8.53125-8.53125 8.53125-4.714844 0-8.535157-3.820313-8.535157-8.53125 0-4.714844 3.820313-8.535157 8.535157-8.535157 4.710937 0 8.53125 3.820313 8.53125 8.535157zm0 0"/></svg>