<?xml version="1.0" encoding="UTF-8"?>
<svg width="256px" height="256px" viewBox="0 0 256 256" xmlns="http://www.w3.org/2000/svg" xmlns:xlink="http://www.w3.org/1999/xlink" version="1.1">
 <!-- Generated by Pixelmator Pro 2.2 -->
 <g id="layer1">
  <g id="g3718">
   <path id="path3720" d="M138.749 26.781 C139.202 21.553 136.199 16.483 131.734 9.922 130.306 7.966 129.724 6.767 129.898 4.73 129.982 3.399 130.604 2.16 131.62 1.296 132.636 0.432 133.959 0.019 135.286 0.149 142.367 0.762 159.665 20.349 157.815 41.705 156.6 55.786 147.855 61.67 139.225 60.925 131.5 60.253 126.288 54.312 126.92 47.036 127.351 42.046 129.859 39.513 134.368 35.095 136.374 32.978 138.413 30.637 138.749 26.781" fill="#559821" fill-opacity="1" stroke="none"/>
  </g>
  <path id="Path" d="M104.893 215.185 C113.849 228.698 129.056 244.738 143.876 252.057 163.95 262.014 174.128 250.445 174.252 240.997 174.397 228.875 164.919 214.33 164.919 214.33 155.861 200.501 152.393 187.689 152.323 175.733 142.208 198.001 150.949 219.85 150.949 219.85 138.827 203.616 140.753 185.677 147.284 168.394 155.307 147.184 190.206 95.599 171.107 77.154 160.688 67.052 150.801 70.79 133.212 66.695 128.619 65.605 124.155 64.03 119.896 61.997 119.896 61.997 101.72 56.393 90.745 73.637 83.086 90.152 75.91 115.529 80.373 148.353 84.49 178.411 95.097 200.49 104.893 215.185 Z M151.179 76.852 C164.317 84.112 164.636 91.029 162.377 104.577 160.739 114.434 157.313 126.871 153.179 138.682 Q156.149 132.742 158.949 126.661 C163.185 117.398 173.265 94.39 167.383 84.539 166.958 83.835 166.446 83.188 165.859 82.613 163.692 80.535 161.477 79.089 158.612 78.215 156.273 77.473 153.706 77.117 151.179 76.852 Z" fill="#eb2a2c" fill-opacity="1" stroke="none"/>
 </g>
</svg>
